Coordinates
version=1
nRows=34
nColumns=38
inDegrees=no

Units are S.I. units (second, meters, Newtons, ...)
If the header above contains a line with 'inDegrees', this indicates whether rotational values are in degrees (yes) or radians (no).

endheader
time	pelvis_tilt	pelvis_list	pelvis_rotation	pelvis_tx	pelvis_ty	pelvis_tz	hip_flexion_r	hip_adduction_r	hip_rotation_r	knee_angle_r	ankle_angle_r	subtalar_angle_r	mtp_angle_r	hip_flexion_l	hip_adduction_l	hip_rotation_l	knee_angle_l	ankle_angle_l	subtalar_angle_l	mtp_angle_l	lumbar_extension	lumbar_bending	lumbar_rotation	arm_flex_r	arm_add_r	arm_rot_r	elbow_flex_r	pro_sup_r	wrist_flex_r	wrist_dev_r	arm_flex_l	arm_add_l	arm_rot_l	elbow_flex_l	pro_sup_l	wrist_flex_l	wrist_dev_l
60	-0.164202	1.35016	1.74327	0.667758	0.235991	0.894277	0.900171	-0.0644153	0.0184943	1.10807	-0.0701752	0	0	0.793233	-0.14754	-0.125409	1.07317	-0.0763527	0	0	-0.712586	-0.0416894	-0.03105	0.91517	-0.539579	0.277872	1.26726	0.75383	0	0	1.06832	-0.601819	0.487213	1.19109	0.791998	0	0
60.01	-0.170055	1.34515	1.74851	0.667671	0.235165	0.890563	0.913946	-0.0659015	0.0212819	1.12067	-0.0667703	0	0	0.808098	-0.146551	-0.12373	1.08977	-0.0738676	0	0	-0.717471	-0.0437001	-0.0323688	0.921823	-0.53702	0.275457	1.26634	0.758079	0	0	1.07288	-0.599025	0.480088	1.19025	0.794759	0	0
60.02	-0.174611	1.34024	1.75261	0.66757	0.234324	0.886984	0.927264	-0.0667021	0.0248436	1.13265	-0.0638726	0	0	0.822417	-0.145695	-0.121986	1.1052	-0.0716991	0	0	-0.722729	-0.0452532	-0.033259	0.928692	-0.5353	0.2735	1.26569	0.761891	0	0	1.07823	-0.596661	0.474866	1.18953	0.797378	0	0
60.03	-0.176734	1.33428	1.75429	0.667456	0.233429	0.883343	0.942297	-0.0668796	0.0287476	1.1455	-0.061398	0	0	0.838397	-0.145112	-0.11987	1.12143	-0.0693283	0	0	-0.726971	-0.0465163	-0.0338571	0.935351	-0.533835	0.271182	1.26554	0.76564	0	0	1.08335	-0.594528	0.469408	1.18982	0.800232	0	0
60.04	-0.177105	1.32835	1.75405	0.667348	0.232506	0.87979	0.95754	-0.0665015	0.03245	1.15831	-0.0596596	0	0	0.854261	-0.145006	-0.117441	1.13718	-0.0671479	0	0	-0.731516	-0.0478751	-0.0342626	0.942287	-0.532618	0.269001	1.2655	0.7687	0	0	1.08951	-0.593994	0.46629	1.19121	0.8026	0	0
60.05	-0.177585	1.32208	1.75367	0.667226	0.231544	0.876283	0.973056	-0.065704	0.0369403	1.17059	-0.0580139	0	0	0.870078	-0.144935	-0.114972	1.15213	-0.0651692	0	0	-0.73571	-0.049279	-0.0343348	0.949332	-0.531823	0.267109	1.26539	0.771777	0	0	1.09586	-0.593258	0.463602	1.19231	0.80492	0	0
60.06	-0.1791	1.31566	1.75445	0.667039	0.230573	0.872859	0.988714	-0.0655677	0.0409996	1.18274	-0.0560297	0	0	0.885375	-0.144537	-0.112787	1.16583	-0.0633602	0	0	-0.739787	-0.0507142	-0.0346726	0.956468	-0.531117	0.265298	1.26527	0.774761	0	0	1.10235	-0.592478	0.4613	1.19328	0.807015	0	0
60.07	-0.182719	1.30918	1.75753	0.666789	0.229608	0.869507	1.00409	-0.0664313	0.0449544	1.19446	-0.0533344	0	0	0.899674	-0.143602	-0.111474	1.17786	-0.0610295	0	0	-0.743832	-0.0522791	-0.0353711	0.963601	-0.530635	0.263546	1.26516	0.777532	0	0	1.10883	-0.591272	0.458767	1.194	0.808966	0	0
60.08	-0.188729	1.30266	1.7632	0.666492	0.228658	0.866172	1.01882	-0.0681743	0.048974	1.20551	-0.0495919	0	0	0.912946	-0.141866	-0.111044	1.18833	-0.0578404	0	0	-0.748044	-0.0540291	-0.0364641	0.970565	-0.530592	0.261762	1.26561	0.780058	0	0	1.11543	-0.589976	0.45625	1.19492	0.810525	0	0
60.09	-0.194675	1.29728	1.76893	0.666158	0.227808	0.863026	1.03068	-0.0702217	0.0517604	1.21394	-0.0454631	0	0	0.923699	-0.140059	-0.111181	1.19653	-0.0545113	0	0	-0.753228	-0.0552979	-0.0373922	0.977993	-0.531015	0.261129	1.26552	0.782412	0	0	1.12251	-0.58892	0.455157	1.19519	0.81116	0	0
60.1	-0.198614	1.29109	1.77297	0.66578	0.226989	0.859741	1.04364	-0.0731989	0.0519117	1.22295	-0.039101	0	0	0.935472	-0.138046	-0.111217	1.20506	-0.0487828	0	0	-0.757356	-0.0561916	-0.038208	0.984572	-0.531538	0.259554	1.26624	0.785436	0	0	1.12885	-0.587888	0.453391	1.19653	0.811663	0	0
60.11	-0.20093	1.28668	1.77503	0.665433	0.226246	0.856685	1.05419	-0.0757351	0.0504112	1.2308	-0.0348003	0	0	0.944813	-0.136941	-0.111639	1.21273	-0.0444649	0	0	-0.762488	-0.0566123	-0.0382743	0.991943	-0.532103	0.259411	1.26567	0.787832	0	0	1.13536	-0.586713	0.452584	1.19664	0.812125	0	0
60.12	-0.201975	1.28041	1.77553	0.665018	0.225418	0.853308	1.06711	-0.0762903	0.0526486	1.23937	-0.029521	0	0	0.956932	-0.135456	-0.111562	1.22192	-0.0383386	0	0	-0.764942	-0.0571112	-0.0380736	0.998432	-0.532683	0.25883	1.26533	0.793305	0	0	1.14055	-0.584955	0.450393	1.19682	0.812471	0	0
60.13	-0.204108	1.27593	1.7769	0.664514	0.224572	0.850178	1.07744	-0.0751667	0.0583568	1.2469	-0.0264033	0	0	0.966654	-0.133711	-0.111392	1.2302	-0.0346946	0	0	-0.769049	-0.0573907	-0.0378979	1.00616	-0.533366	0.259629	1.26404	0.799439	0	0	1.14641	-0.583171	0.449152	1.19595	0.812211	0	0
60.14	-0.203735	1.26899	1.77549	0.664082	0.223738	0.846792	1.09233	-0.0744597	0.0629538	1.25715	-0.0310764	0	0	0.979696	-0.132258	-0.110285	1.23962	-0.0295331	0	0	-0.769801	-0.0579661	-0.0372904	1.01298	-0.535502	0.262245	1.26384	0.783284	0	0	1.15047	-0.580793	0.446263	1.19533	0.81289	0	0
60.15	-0.203129	1.26393	1.77366	0.663722	0.222934	0.843778	1.10566	-0.07423	0.0657056	1.26784	-0.0323769	0	0	0.990789	-0.131628	-0.109056	1.24901	-0.0261538	0	0	-0.772828	-0.0582589	-0.0369172	1.02024	-0.535553	0.263063	1.2628	0.783138	0	0	1.15521	-0.57982	0.444261	1.19515	0.812724	0	0
60.16	-0.201276	1.25812	1.77085	0.663315	0.222091	0.840818	1.12	-0.0741688	0.0681564	1.27842	-0.0341202	0	0	1.0034	-0.131009	-0.107298	1.25904	-0.0232903	0	0	-0.774973	-0.0582865	-0.0369832	1.02741	-0.535303	0.263744	1.26182	0.782362	0	0	1.1598	-0.579937	0.44302	1.19548	0.812229	0	0
60.17	-0.199665	1.25176	1.76877	0.662847	0.221221	0.837941	1.13469	-0.0747808	0.0702169	1.2885	-0.0350302	0	0	1.0171	-0.129884	-0.105454	1.26946	-0.0213629	0	0	-0.776751	-0.0578876	-0.0373623	1.03426	-0.535537	0.264729	1.26197	0.781982	0	0	1.16414	-0.579639	0.440843	1.19592	0.81163	0	0
60.18	-0.201278	1.24978	1.76986	0.662446	0.220417	0.835749	1.14295	-0.075805	0.0713075	1.29609	-0.0342196	0	0	1.0249	-0.12928	-0.105122	1.27801	-0.0208081	0	0	-0.783865	-0.0575824	-0.037211	1.04233	-0.536819	0.266364	1.2623	0.781361	0	0	1.17134	-0.578283	0.440376	1.19435	0.810373	0	0
60.19	-0.201888	1.2439	1.7706	0.661994	0.219642	0.833157	1.15515	-0.0777627	0.0722516	1.30361	-0.0346183	0	0	1.03705	-0.12743	-0.104044	1.28669	-0.0194293	0	0	-0.786651	-0.0576187	-0.0385807	1.0485	-0.537341	0.26738	1.2635	0.781267	0	0	1.17651	-0.578988	0.4398	1.19524	0.809649	0	0
60.2	-0.203985	1.23899	1.77258	0.661617	0.218931	0.830697	1.16532	-0.0799505	0.0732479	1.31	-0.0339646	0	0	1.04724	-0.12575	-0.103583	1.29438	-0.0178019	0	0	-0.790414	-0.0587044	-0.0407024	1.05437	-0.536646	0.266611	1.2641	0.78001	0	0	1.18273	-0.58138	0.441635	1.19659	0.808566	0	0
60.21	-0.205844	1.23279	1.77446	0.66124	0.218218	0.828048	1.17642	-0.0821123	0.0745646	1.31611	-0.0321502	0	0	1.05846	-0.123847	-0.103275	1.30145	-0.0155962	0	0	-0.791905	-0.0597805	-0.0430072	1.05915	-0.5355	0.265446	1.26464	0.778929	0	0	1.18739	-0.582852	0.441791	1.19748	0.807064	0	0
60.22	-0.204117	1.22021	1.77279	0.660807	0.217514	0.824576	1.1948	-0.0837278	0.0769888	1.3228	-0.0211324	0	0	1.07688	-0.121298	-0.101881	1.30885	-0.00874517	0	0	-0.784518	-0.0603722	-0.0456336	1.06085	-0.532696	0.264246	1.26515	0.787679	0	0	1.18579	-0.583168	0.435914	1.19891	0.809014	0	0
60.23	-0.204799	1.2139	1.77217	0.660491	0.216859	0.821767	1.20565	-0.0841467	0.0790856	1.32847	-0.0176076	0	0	1.08725	-0.120736	-0.101997	1.31504	-0.00466733	0	0	-0.784238	-0.0613824	-0.0462951	1.06498	-0.531865	0.264725	1.26567	0.791102	0	0	1.18766	-0.58224	0.432123	1.1984	0.809885	0	0
60.24	-0.204917	1.20865	1.77024	0.660227	0.216245	0.819016	1.21533	-0.0836835	0.0812281	1.33405	-0.0151595	0	0	1.09625	-0.120925	-0.101927	1.32123	-0.00111364	0	0	-0.784659	-0.0627281	-0.046549	1.06923	-0.530475	0.264775	1.26581	0.793115	0	0	1.18978	-0.582247	0.429479	1.19828	0.810811	0	0
60.25	-0.203696	1.2027	1.76691	0.659952	0.215613	0.816144	1.22615	-0.0829398	0.083399	1.34022	-0.0130731	0	0	1.10675	-0.121302	-0.101449	1.32866	0.00279859	0	0	-0.784275	-0.0641028	-0.0469937	1.07299	-0.528479	0.263772	1.26638	0.795527	0	0	1.19139	-0.583515	0.426856	1.19984	0.812424	0	0
60.26	-0.203333	1.19673	1.76486	0.659557	0.21503	0.813418	1.237	-0.0833318	0.0853834	1.34642	-0.011753	0	0	1.11765	-0.120871	-0.101126	1.33672	0.00576727	0	0	-0.784048	-0.0652826	-0.0480991	1.07668	-0.526287	0.262328	1.26717	0.798573	0	0	1.19244	-0.584609	0.42316	1.20177	0.815701	0	0
60.27	-0.203078	1.19058	1.76332	0.659109	0.214517	0.810749	1.2485	-0.0844862	0.0868849	1.35313	-0.0109555	0	0	1.12942	-0.119968	-0.100511	1.34585	0.00830105	0	0	-0.783867	-0.0663044	-0.0497348	1.08007	-0.523727	0.260033	1.26846	0.802544	0	0	1.19276	-0.585725	0.417928	1.20471	0.821413	0	0
60.28	-0.202823	1.18576	1.76212	0.658673	0.21409	0.808323	1.25862	-0.0858258	0.0877056	1.3596	-0.0103874	0	0	1.13965	-0.119092	-0.099556	1.35449	0.010064	0	0	-0.785075	-0.0669456	-0.0510322	1.08377	-0.521801	0.258095	1.26962	0.805982	0	0	1.19344	-0.585894	0.412659	1.20697	0.827177	0	0
60.29	-0.201814	1.18104	1.76056	0.658236	0.213729	0.805936	1.26881	-0.0871026	0.0879404	1.36625	-0.00951852	0	0	1.14967	-0.118151	-0.0979873	1.36251	0.0121514	0	0	-0.786166	-0.067153	-0.0520604	1.08707	-0.520127	0.255787	1.27097	0.809485	0	0	1.19329	-0.584968	0.405816	1.20941	0.833169	0	0
60.3	-0.200326	1.17668	1.7585	0.65783	0.213472	0.803611	1.27826	-0.0879754	0.0878453	1.3725	-0.00818144	0	0	1.15896	-0.117573	-0.0963442	1.36992	0.0144094	0	0	-0.786811	-0.0673616	-0.052577	1.08966	-0.5184	0.25312	1.27186	0.812056	0	0	1.19237	-0.582639	0.398015	1.21102	0.838149	0	0
60.31	-0.199066	1.17285	1.7563	0.6575	0.213291	0.801268	1.28689	-0.0885148	0.0874787	1.37859	-0.00648163	0	0	1.1676	-0.117488	-0.094921	1.37754	0.0169129	0	0	-0.787438	-0.0681176	-0.05295	1.09182	-0.516555	0.250304	1.27254	0.813896	0	0	1.19123	-0.580249	0.390323	1.21268	0.842547	0	0
60.32	-0.198304	1.16947	1.75413	0.657214	0.213146	0.798914	1.29505	-0.0884226	0.0878011	1.38482	-0.00471399	0	0	1.1757	-0.117895	-0.0940258	1.38551	0.0194369	0	0	-0.78836	-0.0694835	-0.0531102	1.09401	-0.515144	0.247762	1.27306	0.815168	0	0	1.19054	-0.578422	0.383985	1.2148	0.846644	0	0
60.33	-0.197918	1.16645	1.75204	0.656935	0.213013	0.79659	1.30275	-0.087674	0.0888524	1.39096	-0.0029176	0	0	1.18326	-0.118655	-0.0935988	1.39354	0.0218389	0	0	-0.789695	-0.0712652	-0.0530831	1.09648	-0.514509	0.245919	1.27356	0.815897	0	0	1.19058	-0.577282	0.379131	1.21739	0.850392	0	0
